<svg width="56.092mm" height="61.875mm" version="1.1" viewBox="0 0 56.092 61.875" xmlns="http://www.w3.org/2000/svg">
 <g transform="translate(-49.636 -159.53)">
  <g transform="matrix(.49906 0 0 .49906 19.846 152.24)">
   <path d="m115.89 14.61v123.98c7.0379-3.7306 13.996-8.1227 21.008-12.118l26.035-15.24 9.1546-76.491c-18.732-6.7204-37.465-13.414-56.198-20.135z" style="fill:#0143a3;stroke-width:.26458"/>
   <path d="m115.89 14.61v123.98c-7.0379-3.7306-13.996-8.1227-21.008-12.118-8.6783-5.08-17.357-10.16-26.035-15.24l-9.1546-76.491c18.732-6.7204 37.465-13.414 56.197-20.135z" style="fill:#0273d4;stroke-width:.26458"/>
   <g transform="matrix(1,0,0,1.1477,3.9687,-16.5)" style="fill:#fff">
    <path transform="scale(.26458)" d="m461.46 370.77-0.26029-44.75-62.5-0.52849v-57.972h63v-89h62v237h-61.979z"/>
    <path transform="scale(.26458)" d="m322.8 297.02v-118.5h62v237h-62z"/>
   </g>
  </g>
 </g>
</svg>
